<?xml version="1.0" encoding="UTF-8" standalone="no"?>
<!DOCTYPE svg PUBLIC "-//W3C//DTD SVG 1.1//EN" "http://www.w3.org/Graphics/SVG/1.1/DTD/svg11.dtd">
<svg width="100%" height="100%" viewBox="0 0 267 187" version="1.1" xmlns="http://www.w3.org/2000/svg" xmlns:xlink="http://www.w3.org/1999/xlink" xml:space="preserve" xmlns:serif="http://www.serif.com/" style="fill-rule:evenodd;clip-rule:evenodd;stroke-linejoin:round;stroke-miterlimit:2;">
    <g transform="matrix(1,0,0,1,-216.23,-373.012)">
        <g transform="matrix(-0.278105,0,0,0.278105,563.161,316.13)">
            <path d="M444.145,292.702C523.497,212.399 750.307,191.753 872.287,211.539C916.511,218.713 965.632,233.717 995.193,269.762C1041.58,326.323 974.742,403.828 1023.08,455.301C1099.33,536.5 1319.51,550.831 1223.79,717.542C1136.82,869.008 928.231,797.06 788.346,804.301C710.644,808.323 637.315,840.764 562.953,860.757C497.372,878.389 413.191,887.748 360.032,835.542C300.644,777.219 276.806,651.576 294.166,588.519C309.387,533.235 328.462,404.494 444.145,292.702Z" style="fill:rgb(204,219,225);"/>
        </g>
    </g>
</svg>
