<?xml version="1.0" encoding="UTF-8" standalone="no"?>
<!DOCTYPE svg PUBLIC "-//W3C//DTD SVG 1.1//EN" "http://www.w3.org/Graphics/SVG/1.1/DTD/svg11.dtd">
<svg width="100%" height="100%" viewBox="0 0 57 83" version="1.1" xmlns="http://www.w3.org/2000/svg" xmlns:xlink="http://www.w3.org/1999/xlink" xml:space="preserve" xmlns:serif="http://www.serif.com/" style="fill-rule:evenodd;clip-rule:evenodd;stroke-linecap:round;stroke-linejoin:round;stroke-miterlimit:1.5;">
    <g transform="matrix(1,0,0,1,-927.135,-505.099)">
        <g transform="matrix(0.811476,0,0,0.811476,315.414,154.784)">
            <path d="M788.686,506.098L788.686,480.198L798.466,475.899L789.223,458.596L779.121,475.361L788.686,480.198L779.121,475.361L779.121,497.5" style="fill:rgb(224,202,14);stroke:rgb(37,111,172);stroke-width:5px;"/>
            <g transform="matrix(1.05965,0,0,1.19251,27.8824,-129.342)">
                <path d="M718.078,472.567C734.983,472.567 748.707,486.075 748.707,502.712C748.707,514.037 736.669,524.452 732.957,529.063C729.944,532.806 723.477,532.858 718.078,532.858C710.299,532.858 706.745,532.832 702.86,528.352C699.338,524.291 687.45,511.694 687.45,502.712C687.45,486.075 701.174,472.567 718.078,472.567Z" style="fill:none;stroke:rgb(37,111,172);stroke-width:4.43px;"/>
            </g>
            <path d="M774.715,506.098L801.69,506.098C801.69,506.098 806.956,510.074 801.905,514.265" style="fill:none;stroke:rgb(37,111,172);stroke-width:5px;"/>
            <path d="M774.715,506.098L801.69,506.098C801.69,506.098 806.956,510.074 801.905,514.265" style="fill:none;stroke:rgb(37,111,172);stroke-width:5px;"/>
            <g transform="matrix(-1,0,0,-1,1576.63,1020.36)">
                <path d="M774.715,506.098L801.69,506.098C801.69,506.098 806.956,510.074 801.905,514.265" style="fill:none;stroke:rgb(37,111,172);stroke-width:5px;"/>
            </g>
            <g transform="matrix(1,0,0,1,0,8.1677)">
                <path d="M774.715,506.098L801.69,506.098C801.69,506.098 806.956,510.074 801.905,514.265" style="fill:none;stroke:rgb(37,111,172);stroke-width:5px;"/>
            </g>
            <g transform="matrix(-1,0,0,-1,1576.63,1028.53)">
                <path d="M774.715,506.098L801.69,506.098C801.69,506.098 806.956,510.074 801.905,514.265" style="fill:none;stroke:rgb(37,111,172);stroke-width:5px;"/>
            </g>
            <path d="M774.937,522.433C774.937,522.433 775.935,529.075 781.675,530.589C783.013,530.554 795.233,530.589 795.233,530.589C795.233,530.589 801.512,530.159 801.912,522.433" style="fill:none;stroke:rgb(37,111,172);stroke-width:5px;"/>
            <path d="M798.466,475.899L798.466,497.07" style="fill:none;stroke:rgb(37,111,172);stroke-width:5px;"/>
        </g>
    </g>
</svg>
