<?xml version="1.0" encoding="UTF-8" standalone="no"?>
<!DOCTYPE svg PUBLIC "-//W3C//DTD SVG 1.1//EN" "http://www.w3.org/Graphics/SVG/1.1/DTD/svg11.dtd">
<svg width="100%" height="100%" viewBox="0 0 89 78" version="1.1" xmlns="http://www.w3.org/2000/svg" xmlns:xlink="http://www.w3.org/1999/xlink" xml:space="preserve" xmlns:serif="http://www.serif.com/" style="fill-rule:evenodd;clip-rule:evenodd;stroke-linecap:round;stroke-linejoin:round;stroke-miterlimit:1.5;">
    <g transform="matrix(1,0,0,1,-816.734,-510.039)">
        <g transform="matrix(0.108914,0,0,0.108914,795.306,495.243)">
            <rect x="214.74" y="621.227" width="765.598" height="69.307" style="fill:rgb(224,202,14);"/>
            <g transform="matrix(21.8731,0,0,21.8731,-12693.8,-5632.35)">
                <g>
                    <path d="M604.853,289.734L604.853,295.322" style="fill:none;stroke:rgb(37,111,172);stroke-width:1.65px;"/>
                    <path d="M611.323,295.322L611.323,289.734" style="fill:none;stroke:rgb(37,111,172);stroke-width:1.65px;"/>
                    <path d="M599.306,295.322L616.078,295.322" style="fill:none;stroke:rgb(37,111,172);stroke-width:1.65px;"/>
                    <g transform="matrix(1,0,0,1,-0.157858,-0.796754)">
                        <path d="M610.047,270.495L606.261,280.444" style="fill:none;stroke:rgb(37,111,172);stroke-width:1.65px;"/>
                    </g>
                    <g transform="matrix(1,0,0,1.0957,-0.528235,-26.3773)">
                        <path d="M626.364,267.113C626.364,266.224 625.574,265.503 624.6,265.503L592.448,265.503C591.475,265.503 590.684,266.224 590.684,267.113L590.684,286.892C590.684,287.78 591.475,288.502 592.448,288.502L624.6,288.502C625.574,288.502 626.364,287.78 626.364,286.892L626.364,267.113Z" style="fill:none;stroke:rgb(37,111,172);stroke-width:1.57px;"/>
                    </g>
                    <g transform="matrix(1,0,0,1,-1.97208,-0.950823)">
                        <path d="M604.677,271.816L600.098,275.646L604.5,279.431" style="fill:none;stroke:rgb(37,111,172);stroke-width:1.65px;"/>
                    </g>
                    <g transform="matrix(-1,0,0,1,1217.97,-0.950823)">
                        <path d="M604.677,271.816L600.098,275.646L604.5,279.431" style="fill:none;stroke:rgb(37,111,172);stroke-width:1.65px;"/>
                    </g>
                    <path d="M590.156,285.902L625.836,285.902" style="fill:none;stroke:rgb(37,111,172);stroke-width:1.65px;"/>
                </g>
            </g>
        </g>
    </g>
</svg>
