<?xml version="1.0" encoding="UTF-8" standalone="no"?>
<!DOCTYPE svg PUBLIC "-//W3C//DTD SVG 1.1//EN" "http://www.w3.org/Graphics/SVG/1.1/DTD/svg11.dtd">
<svg width="100%" height="100%" viewBox="0 0 22 22" version="1.1" xmlns="http://www.w3.org/2000/svg" xmlns:xlink="http://www.w3.org/1999/xlink" xml:space="preserve" xmlns:serif="http://www.serif.com/" style="fill-rule:evenodd;clip-rule:evenodd;stroke-linejoin:round;stroke-miterlimit:2;">
    <g transform="matrix(1.33333,0,0,1.33333,-264.322,-228.571)">
        <g transform="matrix(0.105507,0,0,0.0722222,177.326,159.048)">
            <rect x="198.242" y="171.429" width="151.648" height="221.538" style="fill:rgb(224,202,14);"/>
        </g>
        <g transform="matrix(0.0611082,0,0,0.0611082,213.137,126.253)">
            <g>
                <g id="path2997-7" transform="matrix(14.8968,0,0,14.8968,-228.139,-14687.6)">
                    <path d="M13.239,1039.5L13.717,1038.77C13.717,1038.77 13.831,1039.53 13.479,1040.39C13.467,1040.42 13.177,1041.28 12.675,1041.72C12.677,1041.71 12.427,1041.91 12.222,1041.72C12.226,1041.7 12.125,1041.56 12.035,1041.4C11.969,1041.4 11.181,1042.16 11.175,1042.17C11.165,1042.18 10.901,1042.18 10.701,1041.93C10.687,1041.92 10.445,1041.52 10.378,1041.11C10.366,1041.08 9.354,1041.06 7.441,1041.24L5.53,1041.42C5.569,1041.4 3.941,1041.85 4.026,1042.07C4.019,1042.03 3.99,1042.25 4.781,1042.8C4.784,1042.78 5.063,1043.09 4.843,1043.44C4.843,1043.44 4.634,1043.81 4.309,1044.16C4.277,1044.21 4.143,1044.35 3.994,1044.07C3.968,1044.05 3.704,1043.63 3.189,1043.72C3.205,1043.72 2.763,1043.96 2.367,1044.6C3.131,1061.82 0.433,1044.65 2.622,1043.41C2.611,1043.39 2.914,1043.04 3.415,1042.72C3.411,1042.74 3.554,1041.52 3.988,1041.11C4.006,1041.1 9.833,1039.94 10.477,1040.04C10.491,1040.04 10.732,1040.01 10.853,1040.39C10.842,1040.41 10.964,1041.25 11.49,1041.03C11.505,1040.99 11.949,1040.81 12.365,1039.77C12.37,1039.78 12.189,1040.66 12.509,1040.68C12.829,1040.7 13.439,1040.63 13.239,1039.5L13.239,1039.5Z" style="fill:rgb(12,14,20);fill-rule:nonzero;"/>
                </g>
                <g id="path3812-8" transform="matrix(14.8968,0,0,14.8968,-228.139,-14687.6)">
                    <path d="M12.202,1037.68C12.202,1037.68 11.729,1037.51 11.849,1037.04C11.841,1037.01 11.989,1036.63 12.209,1036.56C12.286,1036.52 12.564,1036.43 12.644,1036.78C12.646,1036.8 12.735,1037.07 12.587,1037.45C12.576,1037.46 12.58,1037.58 12.794,1037.57C12.801,1037.59 12.799,1037.85 12.731,1037.89C12.726,1037.89 12.542,1037.77 12.385,1037.74C12.378,1037.75 12.289,1038.09 11.684,1038.23C11.681,1038.25 11.357,1038.32 11.112,1038.33C11.13,1038.33 10.717,1038.24 10.597,1038.14C10.6,1038.13 10.918,1038.23 11.362,1038.05C11.359,1038.04 11.574,1038.04 12.202,1037.68L12.202,1037.68Z" style="fill:rgb(12,14,20);fill-rule:nonzero;"/>
                </g>
                <g id="path2997-7-7-8" transform="matrix(14.8968,0,0,14.8968,-228.139,-14687.6)">
                    <path d="M10.801,1048.58C10.783,1048.63 9.988,1049.5 9.379,1049.73C9.341,1049.75 8.948,1050.05 8.328,1049.73C8.336,1049.73 7.882,1049.48 7.677,1048.69C7.675,1048.7 7.283,1047.44 7.33,1046.4C7.328,1046.41 6.432,1046.74 5.829,1047.15C5.805,1047.19 5.422,1047.26 5.515,1047.68C5.515,1047.68 5.481,1048.02 6.256,1048.1C6.264,1048.1 7.187,1047.94 7.32,1047.86C7.325,1047.87 6.747,1048.85 6.43,1049.01C6.453,1049.02 6.022,1049.16 5.726,1049.13C5.759,1049.13 5.165,1049.12 5.015,1048.47C5.031,1048.47 4.964,1047.54 5.651,1046.57C5.665,1046.54 6.14,1045.83 7.33,1045.42C7.332,1045.4 7.537,1044.62 7.833,1044.36C7.937,1044.39 7.74,1046.02 7.753,1046.04C7.767,1046.06 7.615,1047.09 8.328,1048.28C8.328,1048.28 8.612,1048.89 9.391,1048.6C9.381,1048.56 9.741,1048.79 10.759,1047.11C12.927,1044.94 11.075,1048.27 10.801,1048.58Z" style="fill:rgb(12,14,20);fill-rule:nonzero;"/>
                </g>
                <g id="path3769-4-6-7" transform="matrix(14.8968,0,0,14.8968,-228.139,-14687.6)">
                    <path d="M8.369,1050.65C8.386,1050.61 8.636,1050.23 8.636,1050.23C8.636,1050.23 8.713,1050.12 8.751,1050.28C8.758,1050.29 9.093,1050.87 9.093,1050.87C9.093,1050.87 9.181,1050.93 9.114,1051.06C9.097,1051.1 8.822,1051.51 8.822,1051.51C8.822,1051.51 8.771,1051.58 8.684,1051.46C8.653,1051.43 8.333,1050.83 8.333,1050.83C8.333,1050.83 8.27,1050.73 8.369,1050.65L8.369,1050.65Z" style="fill:rgb(12,14,20);fill-rule:nonzero;"/>
                </g>
                <g id="path3769-1-0-1-4" transform="matrix(14.8968,0,0,14.8968,-228.139,-14687.6)">
                    <path d="M9.248,1050.7C9.265,1050.67 9.515,1050.29 9.515,1050.29C9.515,1050.29 9.592,1050.18 9.63,1050.34C9.637,1050.35 9.971,1050.92 9.971,1050.92C9.971,1050.92 10.06,1050.98 9.993,1051.12C9.976,1051.15 9.701,1051.57 9.701,1051.57C9.701,1051.57 9.65,1051.64 9.563,1051.52C9.532,1051.49 9.212,1050.89 9.212,1050.89C9.212,1050.89 9.149,1050.79 9.248,1050.7L9.248,1050.7Z" style="fill:rgb(12,14,20);fill-rule:nonzero;"/>
                </g>
                <g id="path3814-8-9-3" transform="matrix(12.6295,0,0,17.1783,-154.735,-16967.2)">
                    <path d="M4.737,1038.32C4.708,1038.32 4.751,1038.14 4.814,1038.06C4.807,1038.06 5.266,1037.72 5.843,1037.7C5.866,1037.7 6.258,1037.65 7.001,1037.41C7.05,1037.41 7.07,1037.49 6.977,1037.68C6.966,1037.7 6.225,1037.94 5.911,1037.96C5.854,1037.96 5.266,1037.99 4.737,1038.32Z" style="fill:rgb(12,14,20);fill-rule:nonzero;"/>
                </g>
                <g id="path3816-2-5-1" transform="matrix(12.6295,0,0,17.1783,-154.735,-16967.2)">
                    <path d="M6.47,1038.28C6.47,1038.28 6.435,1038.54 6.454,1038.92C6.458,1038.93 6.493,1039.26 6.246,1039.39C6.232,1039.4 6.029,1039.47 5.855,1039.18C5.789,1039.17 5.873,1039.47 5.533,1039.54C5.536,1039.55 5.071,1039.57 5.156,1039C5.158,1038.99 5.162,1038.71 5.357,1038.42C5.367,1038.41 5.442,1038.35 5.469,1038.43C5.466,1038.49 5.199,1038.82 5.419,1039.04C5.414,1039.04 5.63,1039.34 5.755,1039.03C5.765,1039.02 5.736,1038.68 5.834,1038.47C5.843,1038.46 5.932,1038.37 5.935,1038.45C5.934,1038.47 5.768,1038.85 6.067,1039.02C6.071,1039.03 6.222,1039.15 6.303,1038.96C6.309,1038.93 6.246,1038.75 6.235,1038.59C6.219,1038.58 6.399,1038.09 6.47,1038.29L6.47,1038.28Z" style="fill:rgb(12,14,20);fill-rule:nonzero;"/>
                </g>
                <g id="path3769-4-6-7-9" transform="matrix(14.8968,0,0,14.8968,-228.139,-14687.6)">
                    <path d="M5.275,1044.4C5.292,1044.36 5.541,1043.98 5.541,1043.98C5.541,1043.98 5.618,1043.87 5.656,1044.03C5.664,1044.04 5.998,1044.61 5.998,1044.61C5.998,1044.61 6.087,1044.68 6.02,1044.81C6.003,1044.85 5.728,1045.26 5.728,1045.26C5.728,1045.26 5.677,1045.33 5.59,1045.21C5.559,1045.18 5.239,1044.58 5.239,1044.58C5.239,1044.58 5.176,1044.48 5.275,1044.4L5.275,1044.4Z" style="fill:rgb(12,14,20);fill-rule:nonzero;"/>
                </g>
                <g id="path3769-1-0-1-4-8" transform="matrix(14.8968,0,0,14.8968,-228.139,-14687.6)">
                    <path d="M6.154,1044.45C6.17,1044.41 6.42,1044.04 6.42,1044.04C6.42,1044.04 6.497,1043.92 6.535,1044.08C6.543,1044.1 6.877,1044.67 6.877,1044.67C6.877,1044.67 6.966,1044.73 6.898,1044.86C6.882,1044.9 6.607,1045.31 6.607,1045.31C6.607,1045.31 6.556,1045.38 6.469,1045.26C6.438,1045.23 6.118,1044.63 6.118,1044.63C6.118,1044.63 6.054,1044.54 6.154,1044.45L6.154,1044.45Z" style="fill:rgb(12,14,20);fill-rule:nonzero;"/>
                </g>
            </g>
        </g>
    </g>
</svg>
